<svg xmlns="http://www.w3.org/2000/svg" width="45" height="45" viewBox="0 0 45 45">
  <g id="Grupo_692" data-name="Grupo 692" transform="translate(0.056 -0.026)">
    <rect id="Retângulo_217" data-name="Retângulo 217" width="45" height="45" rx="7" transform="translate(-0.056 0.026)" fill="#e1cce4"/>
    <g id="Grupo_393" data-name="Grupo 393" transform="translate(4.085 5.256)">
      <g id="Caminho_200" data-name="Caminho 200" transform="translate(2.258 7.992)" fill="none">
        <path d="M3.569,1.416H26.3a18.852,18.852,0,0,1,3.921.152c.069-.036-.381,1.016-.586,1.652L22.487,22.542c-.883,2.226-1.527,3.41-3.41,3.41H10.959c-1.883,0-2.448-1.277-3.41-3.41L.083,3.219c-.075-.188-.693-1.8-.693-1.8Z" stroke="none"/>
        <path d="M 28.15625 2.89704704284668 C 27.84275436401367 2.897430419921875 27.51793098449707 2.902120590209961 27.20336532592773 2.906661987304688 C 26.88479614257812 2.911262512207031 26.58389663696289 2.915611267089844 26.30197525024414 2.915611267089844 L 1.5740966796875 2.915611267089844 L 8.933359146118164 21.96328735351562 C 9.972219467163086 24.26785850524902 10.19208717346191 24.45229148864746 10.95898628234863 24.45229148864746 L 19.07740592956543 24.45229148864746 C 19.66509628295898 24.45229148864746 19.85784530639648 24.28807258605957 20.03293609619141 24.08967208862305 C 20.41127777099609 23.66096878051758 20.77492904663086 22.79104042053223 21.08667945861816 22.00535202026367 L 28.15625 2.89704704284668 M 28.19715881347656 1.39702033996582 C 29.03158378601074 1.397016525268555 29.81332588195801 1.427614212036133 30.22256660461426 1.567352294921875 C 30.2917308807373 1.530784606933594 29.84112548828125 2.583042144775391 29.63647651672363 3.219062805175781 L 22.48738670349121 22.54230117797852 C 21.60463714599609 24.76876258850098 20.96068572998047 25.95229148864746 19.07740592956543 25.95229148864746 L 10.95898628234863 25.95229148864746 C 9.075706481933594 25.95229148864746 8.510555267333984 24.67545127868652 7.549005508422852 22.54230117797852 L 0.08327674865722656 3.219062805175781 C 0.008655548095703125 3.030752182006836 -0.6093730926513672 1.415611267089844 -0.6093730926513672 1.415611267089844 C -0.6093730926513672 1.415611267089844 1.866256713867188 1.415611267089844 3.568746566772461 1.415611267089844 L 26.30197525024414 1.415611267089844 C 26.86452484130859 1.415611267089844 27.54687309265137 1.397022247314453 28.19715881347656 1.39702033996582 Z" stroke="none" fill="#74028f"/>
      </g>
      <path id="Caminho_201" data-name="Caminho 201" d="M-3674.06,233.213h30.788s-4.061-6.857-14.543-6.683-12.828,6.683-12.828,6.683Z" transform="translate(3674.06 -223.81)" fill="none" stroke="#74028f" stroke-linecap="round" stroke-linejoin="round" stroke-width="1.5"/>
      <path id="Caminho_202" data-name="Caminho 202" d="M-3663.053,227.1v-2.968h7.744V227.1" transform="translate(3675.564 -224.137)" fill="none" stroke="#74028f" stroke-linecap="round" stroke-linejoin="round" stroke-width="1.5"/>
      <path id="Caminho_203" data-name="Caminho 203" d="M-3666.062,232.409s4.2,17.8,5.6,23.737" transform="translate(3675.153 -223.006)" fill="none" stroke="#74028f" stroke-width="1.5"/>
      <path id="Caminho_204" data-name="Caminho 204" d="M-3658.7,232.409v24" transform="translate(3676.16 -223.006)" fill="none" stroke="#74028f" stroke-width="1.5"/>
      <path id="Caminho_205" data-name="Caminho 205" d="M-3650.811,232.409l-5.737,23.935" transform="translate(3676.453 -223.006)" fill="none" stroke="#74028f" stroke-width="1.5"/>
    </g>
  </g>
</svg>
