<svg xmlns="http://www.w3.org/2000/svg" width="32.114" height="56.572" viewBox="0 0 32.114 56.572">
  <g id="Grupo_634" data-name="Grupo 634" transform="translate(-7.663 6.141) rotate(-12)">
    <g id="Grupo_631" data-name="Grupo 631" transform="matrix(0.998, -0.07, 0.07, 0.998, 4.763, 2.396)">
      <path id="Caminho_274" data-name="Caminho 274" d="M4.977,0s2.3,2.56,2.237,5.2c0,0,2.425,5.611,1.937,14.462S4.617,40.14,4.617,40.14c-.6,2.506-1.558,3.064-1.558,3.064a5.228,5.228,0,0,1-1.348-3.037S-.3,29.378.037,20.9A78.658,78.658,0,0,1,2.244,5.435C2.305,2.8,4.977,0,4.977,0Z" transform="matrix(0.777, 0.629, -0.629, 0.777, 27.189, 0)"/>
      <path id="Caminho_275" data-name="Caminho 275" d="M2.4,0s-.5,9.544-.685,17.115.346,16.27-.037,19.029a9.153,9.153,0,0,1-.594-2.838S-.081,22.286,0,17.261,1.219,3.476,1.219,3.476C1.736.087,2.4,0,2.4,0Z" transform="matrix(0.777, 0.629, -0.629, 0.777, 25.045, 4.495)" fill="#fff"/>
    </g>
    <g id="Grupo_633" data-name="Grupo 633" transform="translate(0 36.857)">
      <g id="Grupo_632" data-name="Grupo 632" transform="translate(0 0)">
        <path id="Caminho_276" data-name="Caminho 276" d="M10.458,1.241c1.429,1.693,1.389,5.032-.281,7.656a9.409,9.409,0,0,1-3.22,3.021c-1.787,1.038.4-.517.8-1.431.676-1.71-.2.336-1.749,1.431A20.75,20.75,0,0,1,0,14.7a5.12,5.12,0,0,0,1.869-4.214C1.8,9.911.277,7.566.408,6.079.607,3.683,1.3,2,2.992.807,4.9-.227,9.03-.452,10.458,1.241Z" transform="translate(0 0)" fill="#bfbfbf"/>
        <path id="Caminho_277" data-name="Caminho 277" d="M9.607,1.556a7.3,7.3,0,0,1,0,1.657,7.522,7.522,0,0,1-.3,1.414A7.679,7.679,0,0,1,8.858,5.75a6.687,6.687,0,0,1-.456.783,8.708,8.708,0,0,1-.739.9A16.332,16.332,0,0,1,6.306,8.74,17.046,17.046,0,0,1,4.4,10.165,14.845,14.845,0,0,1,2,11.416s.136-.121.35-.322.5-.483.815-.8.64-.684.93-1.045A5.694,5.694,0,0,0,4.793,8.2a3.035,3.035,0,0,0,.268-.888,7.213,7.213,0,0,0,.054-.784A3.591,3.591,0,0,1,5.2,5.785a2.127,2.127,0,0,1,.367-.766,4.654,4.654,0,0,1,.516-.611,1.441,1.441,0,0,1,.468-.31A1.98,1.98,0,0,1,7.12,3.98c.222-.019.486-.025.816-.035a1.173,1.173,0,0,0,.818-.39,2.717,2.717,0,0,0,.512-.819,5.267,5.267,0,0,0,.265-.812C9.585,1.7,9.607,1.556,9.607,1.556Z" transform="translate(0.323 1.613)"/>
      </g>
    </g>
  </g>
</svg>
