<svg xmlns="http://www.w3.org/2000/svg" width="52.517" height="56.646" viewBox="0 0 52.517 56.646">
  <g id="Grupo_380" data-name="Grupo 380" transform="translate(4.835 -0.215) rotate(5)">
    <g id="Grupo_58" data-name="Grupo 58" transform="translate(0 0)">
      <g id="Grupo_56" data-name="Grupo 56" transform="matrix(-1, 0.017, -0.017, -1, 50.371, 53.141)">
        <g id="Grupo_57" data-name="Grupo 57" transform="translate(0 0)">
          <g id="Caminho_36" data-name="Caminho 36" transform="translate(3.373 10.406) rotate(-42)" fill="#bd85c5">
            <path d="M 3.311738014221191 57.26150894165039 C 2.043917894363403 57.26150894165039 1.310588002204895 57.25823974609375 1.132128000259399 57.25178909301758 C 0.4484979808330536 57.22708892822266 0.3904079794883728 57.11980056762695 0.3885379731655121 56.79431915283203 C 0.3126679658889771 43.68898010253906 0.144817978143692 5.824429035186768 0.3613479733467102 3.807318925857544 C 0.5811179876327515 1.760108828544617 3.478208065032959 1.318838834762573 4.87047815322876 1.106768846511841 C 4.977657794952393 1.09044885635376 5.076657772064209 1.075358867645264 5.165827751159668 1.060938835144043 C 5.367258071899414 1.028348803520203 5.786407947540283 0.9605288505554199 5.792478084564209 0.6421288251876831 C 5.794116497039795 0.5564107894897461 5.796584606170654 0.4288433492183685 5.516867637634277 0.2777695953845978 C 7.189064025878906 0.4623563587665558 9.171886444091797 1.75245463848114 9.623457908630371 3.544818878173828 C 10.11972808837891 5.51456880569458 9.963028907775879 39.3116569519043 9.810817718505859 56.91102981567383 C 9.806931495666504 56.99374389648438 9.784083366394043 57.22437286376953 9.084216117858887 57.24995422363281 C 8.94821834564209 57.25041198730469 5.617902278900146 57.26150894165039 3.311738014221191 57.26150894165039 Z" stroke="none"/>
            <path d="M 3.311738014221191 57.00650787353516 C 5.5974440574646 57.00650787353516 8.889657974243164 56.99560546875 9.079116821289062 56.99496841430664 C 9.415136337280273 56.9821891784668 9.528763771057129 56.91918182373047 9.555905342102051 56.89993667602539 C 9.708001136779785 39.30918121337891 9.866028785705566 5.551393985748291 9.376177787780762 3.607118844985962 C 9.160907745361328 2.752688884735107 8.553828239440918 1.955428838729858 7.666748046875 1.362198829650879 C 7.163213729858398 1.025468230247498 6.597564697265625 0.7743839621543884 6.047583103179932 0.6349306702613831 C 6.047563552856445 0.6389505863189697 6.047514915466309 0.6429566144943237 6.047438144683838 0.6469988226890564 C 6.037298202514648 1.178248882293701 5.433757781982422 1.275898814201355 5.206547737121582 1.312658786773682 C 5.116677761077881 1.32719886302948 5.016898155212402 1.342408776283264 4.908877849578857 1.358858823776245 C 4.196547985076904 1.467358827590942 3.120058059692383 1.631328821182251 2.21396803855896 2.027578830718994 C 1.22190797328949 2.461438894271851 0.6988479495048523 3.052498817443848 0.6148979663848877 3.834528923034668 C 0.3996179699897766 5.839968681335449 0.5676779747009277 43.69123840332031 0.6435279846191406 56.79285049438477 C 0.6440082192420959 56.8755989074707 0.6541505455970764 56.91706848144531 0.6594920754432678 56.9332275390625 C 0.6942915320396423 56.95146942138672 0.8034037947654724 56.9847412109375 1.141327977180481 56.9969482421875 C 1.26200795173645 57.00130844116211 1.736508011817932 57.00650787353516 3.311738014221191 57.00650787353516 M 3.311742544174194 57.51650619506836 C 2.206868171691895 57.51650619506836 1.326900005340576 57.51399230957031 1.122918009757996 57.50661849975586 C 0.4813279807567596 57.48344039916992 0.1369679719209671 57.39093017578125 0.1335379779338837 56.7957878112793 C 0.0795779749751091 47.47497940063477 -0.1224720254540443 5.925288677215576 0.1078079715371132 3.780098915100098 C 0.3659679591655731 1.375188827514648 3.81509804725647 1.021148800849915 5.125097751617432 0.8092088103294373 C 6.435098171234131 0.5972588062286377 4.20567798614502 0.1486488282680511 4.20567798614502 0.1486488282680511 C 5.872635364532471 -0.4802706241607666 9.228817939758301 0.9346783757209778 9.8707275390625 3.482518911361694 C 10.4965877532959 5.966639041900635 10.082688331604 54.96178817749023 10.06576824188232 56.91788864135742 C 10.0452880859375 57.38058853149414 9.548667907714844 57.48872756958008 9.089138031005859 57.50494003295898 C 9.089138031005859 57.50494003295898 5.68205738067627 57.51651000976562 3.311742544174194 57.51650619506836 Z" stroke="none" fill="#bd85c5"/>
          </g>
          <g id="Caminho_35" data-name="Caminho 35" transform="translate(12.266 5.957) rotate(137)" fill="#fff">
            <path d="M 4.557510852813721 7.637267112731934 L 0.4278159141540527 0.252799928188324 L 8.746515274047852 0.3073046803474426 L 4.557510852813721 7.637267112731934 Z" stroke="none"/>
            <path d="M 4.559862613677979 7.129288673400879 L 8.317290306091309 0.5545030832290649 L 0.8556338548660278 0.5056137442588806 L 4.559862613677979 7.129288673400879 M 4.555149078369141 8.145236015319824 L -8.462524192509591e-07 -3.899688636010978e-06 L 9.175719261169434 0.06011610105633736 L 4.555149078369141 8.145236015319824 Z" stroke="none" fill="#bd85c5"/>
          </g>
          <path id="Caminho_33" data-name="Caminho 33" d="M36.454,39.989,0,0" transform="translate(10.393 7.671)" fill="none" stroke="#fff" stroke-width="0.51"/>
          <path id="Caminho_34" data-name="Caminho 34" d="M35.882,40.24S9.119,10.222,0,0" transform="translate(7.424 10.368)" fill="none" stroke="#fff" stroke-width="0.5"/>
          <g id="Polígono_3" data-name="Polígono 3" transform="matrix(0.695, -0.719, 0.719, 0.695, 2.658, 4.817)" fill="#fff">
            <path d="M 2.358668088912964 2.667683362960815 L 0.8090181350708008 2.667683362960815 L 1.583843111991882 1.118033528327942 L 2.358668088912964 2.667683362960815 Z" stroke="none"/>
            <path d="M 1.583843111991882 3.576278686523438e-06 L 3.167683124542236 3.167683362960815 L 3.099441528320312e-06 3.167683362960815 L 1.583843111991882 3.576278686523438e-06 Z" stroke="none" fill="#bd85c5"/>
          </g>
        </g>
      </g>
    </g>
    <g id="Caminho_40" data-name="Caminho 40" transform="translate(0.598 1.251)" fill="none" stroke-linecap="round" stroke-linejoin="round">
      <path d="M6.963,0,0,6.407,36.825,45.673l9.464,2.955-2.467-9.4Z" stroke="none"/>
      <path d="M 6.963249206542969 -7.62939453125e-06 L 0 6.406715393066406 L 36.82455062866211 45.67276382446289 L 46.28837966918945 48.62772369384766 L 43.82093048095703 39.23245239257812 L 6.963249206542969 -7.62939453125e-06 M 6.963027954101562 -1.000007629394531 C 7.229587554931641 -1.000007629394531 7.495357513427734 -0.8940963745117188 7.692070007324219 -0.6847076416015625 L 44.54975128173828 38.54775238037109 C 44.66386032104492 38.66920471191406 44.74580001831055 38.81725311279297 44.78813171386719 38.97844314575195 L 47.25558090209961 48.37371444702148 C 47.34796142578125 48.7254638671875 47.24208831787109 49.09964370727539 46.97909927368164 49.35084533691406 C 46.71611785888672 49.60204315185547 46.33749008178711 49.690673828125 45.99032974243164 49.582275390625 L 36.5265007019043 46.62731552124023 C 36.36177825927734 46.57588195800781 36.21316909790039 46.48270416259766 36.09513092041016 46.35683441162109 L -0.7294197082519531 7.090782165527344 C -0.9119720458984375 6.896121978759766 -1.009151458740234 6.636573791503906 -0.9993209838867188 6.369884490966797 C -0.9894905090332031 6.103195190429688 -0.8734817504882812 5.851505279541016 -0.6770896911621094 5.670814514160156 L 6.286159515380859 -0.7359046936035156 C 6.478183746337891 -0.9125785827636719 6.720935821533203 -1.000007629394531 6.963027954101562 -1.000007629394531 Z" stroke="none" fill="#fff"/>
    </g>
  </g>
</svg>
